<?xml version="1.0" encoding="UTF-8"?>
<!DOCTYPE svg PUBLIC "-//W3C//DTD SVG 1.1//EN" "http://www.w3.org/Graphics/SVG/1.1/DTD/svg11.dtd">
<!-- Creator: CorelDRAW (Versión de evaluación) -->
<svg xmlns="http://www.w3.org/2000/svg" xml:space="preserve" width="62.9736mm" height="49.9288mm" version="1.1" style="shape-rendering:geometricPrecision; text-rendering:geometricPrecision; image-rendering:optimizeQuality; fill-rule:evenodd; clip-rule:evenodd"
viewBox="0 0 6146.06 4872.92"
 xmlns:xlink="http://www.w3.org/1999/xlink"
 xmlns:xodm="http://www.corel.com/coreldraw/odm/2003">
 <defs>
  <style type="text/css">
   <![CDATA[
    .fil3 {fill:#FEFEFE;fill-rule:nonzero}
    .fil1 {fill:#7DB3E1;fill-rule:nonzero}
    .fil2 {fill:#007FC5;fill-rule:nonzero}
    .fil0 {fill:white;fill-rule:nonzero}
   ]]>
  </style>
   <clipPath id="id0">
    <path d="M-0 74.16l6146.06 -74.16 0 3635.97 -6146.06 74.16 0 -3635.97z"/>
   </clipPath>
    <clipPath id="id1">
     <path d="M256.54 3477.12l5492.49 1 0 1019 -5492.49 -1 0 -1019z"/>
    </clipPath>
    <clipPath id="id2">
     <path d="M5664.09 3524.07l301.56 0 0 301.56 -301.56 0 0 -301.56z"/>
    </clipPath>
    <clipPath id="id3">
     <path d="M4680.81 4439.08l981.66 0 0 433.84 -981.66 0 0 -433.84z"/>
    </clipPath>
 </defs>
 <g id="Capa_x0020_1">
  <metadata id="CorelCorpID_0Corel-Layer"/>
  <g style="clip-path:url(#id0)">
   <image x="-0" y="0" width="6146.06" height="3710.14" xlink:href="logo web_Images\logo web_ImgID1.png"/>
  </g>
  <path class="fil0" d="M2559.89 331.98c263.46,-82.76 551.89,-19.58 789,110.24 174.64,135.08 292.08,330.41 379.8,529.99 159.02,-40.87 325.84,-2.84 475.63,55.16 66.83,24.55 124.13,70.39 169.77,124.24 87.12,97.05 156.59,208.7 217.03,323.92 128.09,-58.31 275.85,-65.41 411.33,-30.32 114.39,28.09 223.52,79.1 318.85,148.47 212.77,172.41 308.4,461.54 279.2,729.38 136.5,74.23 234.87,209.12 272.6,359.01 25.36,89.24 22.92,182.85 20.38,274.73 -8.62,120.99 -48.16,244.21 -131.63,334.77 -97.05,109.22 -240.86,169.26 -384.67,181.94 -487.09,3.05 -974.08,8.62 -1461.18,7.6 -486.69,-1.11 -973.17,3.35 -1459.86,1.93 -375.23,-0.41 -750.47,2.13 -1125.7,0.7 -115.41,-2.94 -230.52,-10.75 -346.03,-12.87 -182.84,-17.34 -369.05,-74.23 -509.91,-196.24 -127.88,-108.11 -209.73,-264.59 -237.91,-428.58 -31.85,-173.62 -1.12,-357.89 84.98,-512.05 74.04,-134.67 184.78,-247.55 313.07,-331.22 -42.8,-209.32 -24.45,-430.71 55.37,-629.07 70.58,-180.82 183.86,-343.8 323.61,-478.07 150.81,-140.96 346.84,-227.36 548.96,-262.66 183.67,-32.15 373.82,-29.91 556.67,6.8 113.28,-141.48 265.71,-255.68 440.65,-307.79zm76.16 147.75l0 0c-202.02,59.74 -368.44,200 -504.64,356.27 -120.07,-55.57 -254.45,-75.45 -385.98,-69.16 -209.12,11.16 -409.01,98.07 -573.2,225.74 -153.75,128.7 -275.64,296.43 -344.7,485.07 -75.45,204.25 -81.24,429.99 -30.53,640.83 -153.44,86.41 -295.53,208.2 -368.74,371.79 -65.01,142.19 -58.11,310.54 3.75,452.51 59.23,130.53 166.42,238.13 297.35,296.75 50.19,20.79 102.13,37.93 156.08,46.04 116.73,21.8 235.79,7 353.63,9.84 415.9,1.52 831.79,-2.73 1247.8,-2.03 267.03,0.71 533.95,-3.65 800.97,-2.03 216.41,1.63 432.74,-2.83 649.26,-2.02 459.81,0.7 919.62,-3.55 1379.54,-2.03 149.18,-14.41 302.42,-92.29 373.2,-229.61 68.26,-134.98 46.76,-297.96 -12.37,-432.23 -46.65,-108.11 -142.79,-189.44 -253.44,-226.86 23.83,-131.23 31.04,-268.45 -3.95,-398.36 -24.14,-88.74 -74.95,-172 -153.14,-222.71 -79.5,-78.19 -175.34,-142.38 -284.97,-168.55 -153.75,-43.61 -318.44,-5.37 -456.26,69.07 -64.6,-146.45 -137.02,-294 -249.18,-410.43 -51.32,-55.06 -122.31,-83.77 -189.85,-113.08 -148.78,-57.71 -316.52,-59.23 -468.74,-14.1 -47.36,-152.12 -120.38,-297.55 -221.8,-420.97 -101.31,-123.01 -242.58,-217.33 -401.7,-242.58 -116.32,-36.62 -242.28,-31.14 -358.4,2.83z"/>
  <path class="fil1" d="M2636.05 479.73c116.12,-33.97 242.08,-39.45 358.4,-2.83 159.12,25.25 300.4,119.57 401.7,242.58 101.42,123.42 174.44,268.85 221.8,420.97 152.22,-45.13 319.96,-43.61 468.74,14.1 67.54,29.31 138.53,58.01 189.85,113.08 112.16,116.42 184.58,263.98 249.18,410.43 137.82,-74.44 302.51,-112.68 456.26,-69.07 109.63,26.17 205.47,90.37 284.97,168.55 78.2,50.71 129,133.97 153.14,222.71 34.99,129.91 27.79,267.13 3.95,398.36 -182.14,-76.17 -387.91,-58.31 -574.11,-6.39 -39.45,-146.24 -104.56,-290.25 -215.71,-396.33 -115,-112.57 -274.73,-172.3 -434.15,-179.09 -107.71,-8.52 -215.31,8.41 -319.87,33.16 -51.72,-127.69 -98.78,-259.22 -176.87,-373.82 -57.19,-84.58 -137.72,-152.02 -228.89,-197.45 -108.12,-53.85 -225.04,-88.13 -342.99,-112.27 -121.39,-24.55 -249.18,-6.7 -360.63,46.14 -168.66,79.1 -298.97,221.38 -395.72,377.66 -71.6,-32.55 -145.13,-62.77 -223.42,-74.44 -208.2,-33.47 -421.07,20.39 -607.47,112.77 -168.96,82.96 -337.92,189.75 -433.04,357.89 -152.54,263.68 -167.44,583.04 -131.54,878.96 -91.88,44.62 -188.02,99.69 -235.79,194.31 -29.31,55.27 -26.77,120.07 -14.5,179.81 -130.93,-58.62 -238.12,-166.22 -297.35,-296.75 -61.86,-141.98 -68.76,-310.32 -3.75,-452.51 73.22,-163.58 215.3,-285.38 368.74,-371.79 -50.71,-210.84 -44.92,-436.58 30.53,-640.83 69.06,-188.64 190.96,-356.37 344.7,-485.07 164.19,-127.68 364.08,-214.59 573.2,-225.74 131.53,-6.3 265.9,13.59 385.98,69.16 136.2,-156.27 302.62,-296.53 504.64,-356.27z"/>
  <path class="fil2" d="M2770.83 1212.56c111.46,-52.84 239.24,-70.69 360.63,-46.14 117.95,24.14 234.87,58.41 342.99,112.27 91.17,45.43 171.69,112.87 228.89,197.45 78.09,114.6 125.15,246.13 176.87,373.82 104.56,-24.75 212.16,-41.68 319.87,-33.16 159.43,6.79 319.15,66.52 434.15,179.09 111.15,106.09 176.26,250.09 215.71,396.33 186.2,-51.92 391.97,-69.77 574.11,6.39 110.65,37.42 206.79,118.75 253.44,226.86 59.12,134.27 80.63,297.25 12.37,432.23 -70.79,137.32 -224.03,215.2 -373.2,229.61 -459.92,-1.52 -919.73,2.73 -1379.54,2.03 -216.52,-0.81 -432.84,3.65 -649.26,2.02 -267.03,-1.62 -533.95,2.74 -800.97,2.03 -416.01,-0.7 -831.9,3.55 -1247.8,2.03 -117.85,-2.84 -236.91,11.97 -353.63,-9.84 -53.95,-8.11 -105.88,-25.25 -156.08,-46.04 -12.27,-59.74 -14.81,-124.54 14.5,-179.81 47.76,-94.62 143.91,-149.69 235.79,-194.31 -35.9,-295.93 -20.99,-615.28 131.54,-878.96 95.12,-168.14 264.08,-274.93 433.04,-357.89 186.39,-92.39 399.26,-146.24 607.47,-112.77 78.29,11.66 151.82,41.89 223.42,74.44 96.75,-156.28 227.06,-298.56 395.72,-377.66z"/>
  <g id="_1495993036576">
   <g style="clip-path:url(#id1)">
    <image x="256.54" y="3477.12" width="5492.49" height="1019.99" xlink:href="logo web_Images\logo web_ImgID2.png"/>
   </g>
  </g>
  <g id="_1495993042624">
   <path class="fil3" d="M1866.11 3646.11c-0.51,-49.9 62.36,-56.6 98.37,-43 27.69,7.3 31.04,39.55 30.53,63.58 -1.11,67.03 1.92,134.17 -2.13,201.1 122.6,-97.25 326.25,-50.19 402.21,84.99 49.89,80.83 54.25,186.91 9.13,270.98 -60.03,121.5 -215.2,183.05 -342.67,138.03 -112.68,-32.46 -193.51,-142.89 -196.03,-259.22 0.3,-152.13 -0.92,-304.35 0.61,-456.46zm237.1 305.97l0 0c-56.99,18.05 -104.35,70.28 -108.21,131.12 -10.25,87.83 70.69,168.66 157.6,164.3 85.18,0.91 162.06,-79.72 151.21,-165.51 -5.79,-94.52 -112.37,-160.65 -200.6,-129.91z"/>
   <path class="fil3" d="M3035.83 3598.33c32.05,-7.91 85.19,-5.78 88.43,37.22 3.55,193.4 -0.41,387.1 1.83,580.6 0.51,39.45 57.2,26.17 68.96,59.33 8.73,33.36 10.55,84.48 -29.21,98.07 -89.34,12.78 -170.58,-70.99 -169.46,-158.71 -0.11,-189.24 -0.41,-378.68 0.1,-567.92 -2.13,-24.14 14.3,-47.26 39.35,-48.58z"/>
   <g>
    <path class="fil3" d="M374.61 3676.53c-3.45,-26.88 13.89,-57.4 42.69,-59.53 31.85,-5.57 80.94,-0.2 85.59,40.06 3.36,170.79 -0.91,341.86 2.03,512.65 7.81,68.25 98.08,101.82 150.51,59.22 26.06,-19.98 39.75,-52.63 36.4,-85.18 -0.1,-159.52 -0.81,-319.15 0.3,-478.68 -1.83,-23.12 15.12,-46.65 39.05,-48.08 27.88,-2.33 63.69,-4.16 83.06,19.98 7.41,15.63 6.49,33.27 7,50.2 -0.51,155.27 -0.2,310.63 -0.3,466 -3.35,50.71 43.3,96.65 93.7,94.52 50.2,2.13 96.95,-43.81 93.92,-94.32 0.2,-162.27 -0.51,-324.63 0.3,-486.89 -1.02,-20.49 9.84,-43.2 32.15,-46.14 33.16,-9.43 90.36,-10.75 95.32,34.48 3.65,162.67 0.2,325.55 1.73,488.31 3.14,79.21 -37.02,160.14 -106.49,200.2 -84.58,52.62 -204.55,41.27 -274.22,-31.24 -59.53,56.39 -150.3,80.72 -228.59,52.54 -90.46,-26.47 -155.37,-117.74 -154.15,-211.55 0.1,-158.82 0.1,-317.74 0,-476.55z"/>
    <g>
     <path class="fil3" d="M4308.18 3748.53c6.7,-46.14 66.52,-47.77 101.41,-36.21 40.87,24.04 23.42,77.58 26.67,116.42 48.78,2.23 98.37,-5.08 146.54,4.87 26.06,4.36 32.96,33.87 31.44,56.28 -0.2,24.64 -3.86,60.24 -34.28,64.49 -47.36,8.12 -95.84,2.03 -143.6,3.45 0.51,85.8 -0.71,171.6 0.41,257.39 -1.73,19.57 20.58,32.25 38.13,29.41 35.9,-5.98 24.44,-60.44 60.54,-67.95 33.97,-8.52 88.75,-5.48 95.43,38.23 4.27,92.8 -87.42,168.55 -177.37,158.01 -49.49,-6.09 -97.86,-33.07 -122.61,-77.39 -21.3,-33.16 -25.14,-73.73 -24.14,-112.16 1.42,-144.92 -1.52,-290.05 1.42,-434.87z"/>
     <path class="fil3" d="M1335.71 3875.2c74.54,-56.08 177.07,-75.04 265.71,-43.7 124.64,37.52 211.55,172.2 190.15,301.2 -5.67,23.63 -32.85,29.11 -53.65,30.23 -122.9,2.43 -245.83,-1.83 -368.64,2.13 29.91,49.89 82.96,88.13 143.2,84.99 41.78,5.57 69.57,-47.97 111.25,-32.86 26.07,17.44 56.89,42.89 53.04,77.88 -7.82,30.43 -39.86,45.13 -64.91,59.53 -129.1,63.89 -298.16,-6.39 -357.78,-134.27 -59.23,-115.41 -22.52,-268.24 81.63,-345.11zm33.88 158.51l0 0c94.83,1.12 189.64,-0.1 284.57,0.71 -27.59,-47.16 -74.34,-86.61 -131.03,-88.84 -63.69,-6.69 -125.34,31.95 -153.54,88.13z"/>
     <path class="fil3" d="M2693.25 3824.39c72.31,-21.9 156.59,-10.65 215.4,38.43 13.5,11.36 29.01,26.07 27.08,45.54 -3.45,29.51 -27.48,51.32 -51.22,66.12 -32.85,13.69 -59.12,-17.85 -87.42,-28.39 -92.48,-22.93 -193.29,60.84 -183.76,156.88 1.83,103.55 136.91,184.68 222.9,117.14 41.38,-30.52 88.54,16.12 100.1,55.28 1.12,33.46 -30.53,54.05 -56.38,68.45 -83.77,48.98 -192.49,33.67 -270.98,-18.35 -96.75,-61.36 -146.54,-188.73 -115.52,-299.18 22.11,-97.46 103.44,-177.48 199.79,-201.92z"/>
     <path class="fil3" d="M3434.8 3825.5c125.55,-34.68 271.68,32.05 324.93,151.82 43.81,88.43 33.77,198.87 -23.64,278.79 -76.77,114.9 -242.88,153.03 -364.08,88.43 -111.65,-55.78 -177.57,-192.38 -143.91,-313.87 23.13,-100.2 105.98,-183.16 206.69,-205.17zm9.02 130.72l0 0c-58.71,22.52 -99.89,84.59 -95.23,147.76 2.44,77.79 74.14,144.92 151.82,143.51 86.91,4.26 167.54,-76.88 157.4,-164.39 -6.19,-99.59 -123.63,-167.14 -213.99,-126.88z"/>
     <path class="fil3" d="M3894.31 3857.85c59.63,-51.72 143.7,-33.26 215.81,-36.81 33.67,1.22 79.71,-8.62 98.88,27.79 8.82,33.57 10.96,85.6 -29.41,98.78 -63.69,8.22 -128.5,-1.72 -192.29,4.77 -36.31,8.52 -30.52,77.58 9.64,74.14 54.56,0.2 114.08,-5.68 161.86,26.57 87.82,55.88 96.54,194 25.66,266.82 -36,34.69 -87.12,49.19 -136.3,46.65 -53.14,-1.92 -106.68,3.14 -159.52,-2.84 -24.34,-0.91 -41.99,-22.72 -40.46,-46.35 -1.52,-28.49 -0.31,-73.01 36.61,-77.28 63.69,-8.72 128.69,1.73 192.59,-4.86 5.98,-2.64 17.95,-8.01 24.03,-10.66 -0.1,-16.63 0,-33.26 0.31,-49.79 -10.45,-6.38 -18.16,-20.58 -32.05,-18.66 -51.52,-0.61 -106.39,4.98 -153.14,-21.39 -99.38,-51.11 -109.83,-209.52 -22.2,-276.86z"/>
     <path class="fil3" d="M4781.17 3871.64c73.73,-53.24 173.31,-70.68 259.82,-40.36 122.71,36.2 208.1,166.22 192.59,293.18 -1.33,23.64 -24.85,40.27 -47.46,38.54 -125.45,1.83 -250.9,-0.92 -376.26,1.22 27.89,50.91 81.95,87.42 141.17,85.9 36,3.76 60.34,-28.09 92.89,-36.4 30.43,0.91 51.52,28.6 67.44,51.51 21.61,40.78 -22.41,69.98 -53.13,86.31 -138.94,73.83 -326.86,-12.06 -375.24,-158.71 -43.1,-113.08 -1.02,-251.81 98.17,-321.18zm27.39 162.37l0 0c95.02,0.2 190.04,0.3 285.07,0 -28.5,-51.11 -81.64,-91.08 -142.18,-88.84 -60.55,-1.92 -115.01,36.81 -142.89,88.84z"/>
     <path class="fil3" d="M5531.84 3822.36c24.04,-4.26 51.52,-12.17 74.23,1.42 29.1,21.9 26.26,65.41 14.91,96.14 -9.03,24.95 -39.56,22.82 -60.65,28.19 -68.86,10.25 -127.99,73.73 -127.48,144.41 -0.81,74.24 0.81,148.68 -0.3,222.91 1.83,69.87 -130.52,71.19 -128.8,0.3 -1.21,-67.85 0.3,-135.59 -0.61,-203.43 -1.42,-71.2 20.9,-144.22 68.36,-198.06 40.86,-47.87 98.77,-79.72 160.33,-91.89z"/>
    </g>
   </g>
  </g>
  <g id="_1495494548400">
   <g style="clip-path:url(#id2)">
    <image x="5664.09" y="3524.07" width="301.56" height="301.56" xlink:href="logo web_Images\logo web_ImgID3.png"/>
   </g>
  </g>
  <path class="fil3" d="M5814.97 3558.86c19.46,0 38.45,5 57.02,15.01 18.51,9.96 33,24.29 43.33,42.86 10.34,18.62 15.53,38.03 15.53,58.18 0,19.98 -5.08,39.23 -15.31,57.65 -10.18,18.47 -24.45,32.78 -42.86,42.96 -18.41,10.23 -37.66,15.31 -57.7,15.31 -20.1,0 -39.34,-5.08 -57.76,-15.31 -18.42,-10.18 -32.73,-24.5 -42.96,-42.96 -10.23,-18.42 -15.37,-37.67 -15.37,-57.65 0,-20.14 5.19,-39.56 15.59,-58.18 10.43,-18.56 24.92,-32.89 43.43,-42.86 18.57,-10.01 37.56,-15.01 57.08,-15.01zm0 19.21c-16.31,0 -32.21,4.2 -47.64,12.54 -15.42,8.33 -27.48,20.3 -36.2,35.82 -8.7,15.54 -13.06,31.69 -13.06,48.48 0,16.74 4.3,32.73 12.85,48.05 8.56,15.32 20.51,27.28 35.89,35.83 15.36,8.56 31.42,12.86 48.15,12.86 16.68,0 32.73,-4.3 48.11,-12.86 15.37,-8.55 27.33,-20.51 35.83,-35.83 8.5,-15.31 12.75,-31.31 12.75,-48.05 0,-16.79 -4.35,-32.94 -13.01,-48.48 -8.66,-15.52 -20.72,-27.48 -36.2,-35.82 -15.47,-8.34 -31.32,-12.54 -47.47,-12.54zm-50.94 160.84l0 -124.64 42.91 0c14.68,0 25.28,1.14 31.84,3.45 6.62,2.3 11.8,6.3 15.74,12.06 3.87,5.72 5.82,11.81 5.82,18.26 0,9.08 -3.25,17.04 -9.81,23.76 -6.5,6.76 -15.16,10.54 -25.96,11.38 4.4,1.83 7.97,4.04 10.6,6.61 5.03,4.88 11.17,13.12 18.46,24.71l15.22 24.4 -24.45 0 -11.12 -19.63c-8.71,-15.48 -15.79,-25.18 -21.14,-29.06 -3.68,-2.83 -9.03,-4.25 -16.1,-4.2l-11.86 0 0 52.89 -20.14 0zm20.14 -70.19l24.45 0c11.69,0 19.67,-1.74 23.92,-5.2 4.25,-3.45 6.4,-8.07 6.4,-13.74 0,-3.67 -1.05,-6.97 -3.1,-9.86 -2.04,-2.94 -4.88,-5.08 -8.5,-6.51 -3.66,-1.42 -10.38,-2.15 -20.24,-2.15l-22.93 0 0 37.46z"/>
  <g id="_1495494497184">
   <g style="clip-path:url(#id3)">
    <image x="4680.81" y="4439.08" width="981.66" height="433.84" xlink:href="logo web_Images\logo web_ImgID4.png"/>
   </g>
  </g>
  <path class="fil3" d="M4928.07 4492.76l0 39.79 -105.36 0c-7.24,0 -14.1,1.36 -20.58,4.08 -6.48,2.7 -12.13,6.48 -16.96,11.3 -4.81,4.82 -8.59,10.47 -11.29,16.95 -2.71,6.48 -4.07,13.34 -4.07,20.58 0,7.23 1.36,14.01 4.07,20.34 2.7,6.33 6.48,11.92 11.29,16.74 4.83,4.82 10.48,8.59 16.96,11.3 6.48,2.71 13.34,4.07 20.58,4.07l28.03 0c12.66,0 24.64,2.41 35.95,7.23 11.31,4.82 21.1,11.46 29.4,19.9 8.29,8.44 14.85,18.31 19.68,29.62 4.82,11.3 7.23,23.29 7.23,35.95 0,12.67 -2.41,24.64 -7.23,35.95 -4.82,11.3 -11.39,21.1 -19.68,29.4 -8.3,8.29 -18.08,14.84 -29.4,19.67 -11.3,4.82 -23.29,7.23 -35.95,7.23l-105.82 0 0 -39.34 105.82 0c7.23,0 14.09,-1.36 20.58,-4.07 6.48,-2.71 12.04,-6.48 16.72,-11.3 4.67,-4.82 8.44,-10.47 11.31,-16.96 2.87,-6.48 4.29,-13.33 4.29,-20.57 0,-7.23 -1.42,-14.09 -4.29,-20.56 -2.87,-6.49 -6.64,-12.14 -11.31,-16.96 -4.67,-4.83 -10.24,-8.6 -16.72,-11.31 -6.49,-2.71 -13.35,-4.07 -20.58,-4.07l-28.03 0c-12.67,0 -24.65,-2.41 -35.95,-7.23 -11.3,-4.83 -21.18,-11.38 -29.62,-19.68 -8.44,-8.29 -15.07,-18.08 -19.9,-29.39 -4.82,-11.3 -7.23,-23.29 -7.23,-35.95 0,-12.97 2.41,-25.02 7.23,-36.19 4.83,-11.16 11.46,-20.94 19.9,-29.39 8.44,-8.44 18.32,-15.07 29.62,-19.9 11.3,-4.82 23.29,-7.23 35.95,-7.23l105.36 0zm55.17 276.3l39.34 0 0 52.45 -39.34 0 0 -52.45zm274.03 -159.63c0,-11.16 -2.11,-21.63 -6.33,-31.43 -4.22,-9.8 -10.02,-18.4 -17.41,-25.78 -7.38,-7.39 -15.98,-13.2 -25.78,-17.41 -9.8,-4.22 -20.27,-6.33 -31.43,-6.33 -11.16,0 -21.63,2.12 -31.43,6.33 -9.8,4.22 -18.39,10.02 -25.78,17.41 -7.38,7.38 -13.19,15.98 -17.41,25.78 -4.22,9.8 -6.32,20.27 -6.32,31.43l0 54.72 161.88 0 0 -54.72zm-161.88 94.05l0 119.38 -39.8 0 0 -213.44c0,-16.58 3.16,-32.18 9.5,-46.8 6.33,-14.63 14.92,-27.36 25.78,-38.22 10.85,-10.85 23.6,-19.44 38.21,-25.78 14.62,-6.32 30.37,-9.5 47.26,-9.5 16.58,0 32.18,3.17 46.81,9.5 14.62,6.33 27.36,14.92 38.21,25.78 10.85,10.86 19.44,23.59 25.78,38.22 6.32,14.62 9.5,30.22 9.5,46.8l0 213.44 -39.34 0 0 -119.38 -161.88 0zm248.25 65.58l39.35 0 0 52.45 -39.35 0 0 -52.45zm270.42 -276.3l0 39.79 -105.37 0c-7.24,0 -14.09,1.36 -20.57,4.08 -6.48,2.7 -12.13,6.48 -16.96,11.3 -4.82,4.82 -8.59,10.47 -11.3,16.95 -2.71,6.48 -4.07,13.34 -4.07,20.58 0,7.23 1.36,14.01 4.07,20.34 2.71,6.33 6.48,11.92 11.3,16.74 4.83,4.82 10.48,8.59 16.96,11.3 6.48,2.71 13.33,4.07 20.57,4.07l28.04 0c12.66,0 24.64,2.41 35.95,7.23 11.31,4.82 21.1,11.46 29.4,19.9 8.29,8.44 14.85,18.31 19.67,29.62 4.83,11.3 7.23,23.29 7.23,35.95 0,12.67 -2.4,24.64 -7.23,35.95 -4.81,11.3 -11.38,21.1 -19.67,29.4 -8.3,8.29 -18.08,14.84 -29.4,19.67 -11.3,4.82 -23.29,7.23 -35.95,7.23l-105.82 0 0 -39.34 105.82 0c7.23,0 14.09,-1.36 20.57,-4.07 6.48,-2.71 12.05,-6.48 16.73,-11.3 4.67,-4.82 8.44,-10.47 11.31,-16.96 2.87,-6.48 4.29,-13.33 4.29,-20.57 0,-7.23 -1.42,-14.09 -4.29,-20.56 -2.87,-6.49 -6.64,-12.14 -11.31,-16.96 -4.67,-4.83 -10.25,-8.6 -16.73,-11.31 -6.48,-2.71 -13.34,-4.07 -20.57,-4.07l-28.04 0c-12.66,0 -24.64,-2.41 -35.95,-7.23 -11.3,-4.83 -21.17,-11.38 -29.61,-19.68 -8.44,-8.29 -15.08,-18.08 -19.9,-29.39 -4.82,-11.3 -7.23,-23.29 -7.23,-35.95 0,-12.97 2.41,-25.02 7.23,-36.19 4.82,-11.16 11.46,-20.94 19.9,-29.39 8.44,-8.44 18.31,-15.07 29.61,-19.9 11.31,-4.82 23.3,-7.23 35.95,-7.23l105.37 0z"/>
 </g>
</svg>
