<?xml version="1.0" encoding="UTF-8"?>
<!DOCTYPE svg PUBLIC "-//W3C//DTD SVG 1.1//EN" "http://www.w3.org/Graphics/SVG/1.1/DTD/svg11.dtd">
<!-- Creator: CorelDRAW (Versión de evaluación) -->
<svg xmlns="http://www.w3.org/2000/svg" xml:space="preserve" width="58.4702mm" height="46.3962mm" version="1.1" style="shape-rendering:geometricPrecision; text-rendering:geometricPrecision; image-rendering:optimizeQuality; fill-rule:evenodd; clip-rule:evenodd"
viewBox="0 0 5704.86 4526.82"
 xmlns:xlink="http://www.w3.org/1999/xlink"
 xmlns:xodm="http://www.corel.com/coreldraw/odm/2003">
 <defs>
  <style type="text/css">
   <![CDATA[
    .fil3 {fill:#FEFEFE;fill-rule:nonzero}
    .fil1 {fill:#7DB3E1;fill-rule:nonzero}
    .fil2 {fill:#007FC5;fill-rule:nonzero}
    .fil0 {fill:white;fill-rule:nonzero}
   ]]>
  </style>
 </defs>
 <g id="Capa_x0020_1">
  <metadata id="CorelCorpID_0Corel-Layer"/>
  <path class="fil0" d="M2334.9 37.25c263.39,-82.74 551.73,-19.57 788.77,110.2 174.59,135.04 291.99,330.31 379.69,529.84 158.97,-40.86 325.74,-2.84 475.49,55.15 66.82,24.54 124.1,70.37 169.72,124.2 87.09,97.02 156.54,208.64 216.96,323.82 128.05,-58.3 275.77,-65.39 411.21,-30.31 114.36,28.08 223.45,79.08 318.76,148.42 212.71,172.36 308.31,461.4 279.11,729.16 136.46,74.21 234.8,209.06 272.52,358.91 25.35,89.22 22.91,182.79 20.37,274.65 -8.62,120.96 -48.15,244.14 -131.59,334.67 -97.02,109.19 -240.79,169.21 -384.56,181.89 -486.95,3.04 -973.79,8.62 -1460.75,7.6 -486.55,-1.11 -972.89,3.35 -1459.43,1.93 -375.12,-0.41 -750.24,2.13 -1125.37,0.7 -115.38,-2.94 -230.45,-10.74 -345.93,-12.87 -182.79,-17.34 -368.94,-74.21 -509.76,-196.18 -127.84,-108.08 -209.67,-264.51 -237.84,-428.45 -31.84,-173.56 -1.12,-357.78 84.95,-511.89 74.02,-134.64 184.73,-247.47 312.98,-331.12 -42.78,-209.26 -24.44,-430.58 55.35,-628.89 70.56,-180.77 183.81,-343.7 323.52,-477.93 150.76,-140.92 346.74,-227.3 548.79,-262.59 183.61,-32.14 373.71,-29.9 556.5,6.8 113.25,-141.44 265.63,-255.6 440.52,-307.7zm76.13 147.71l0 0c-201.96,59.72 -368.33,199.94 -504.49,356.16 -120.04,-55.56 -254.37,-75.43 -385.86,-69.14 -209.06,11.15 -408.89,98.04 -573.03,225.68 -153.7,128.66 -275.56,296.35 -344.6,484.93 -75.43,204.19 -81.22,429.87 -30.52,640.65 -153.4,86.39 -295.44,208.14 -368.63,371.68 -64.99,142.15 -58.09,310.44 3.75,452.38 59.21,130.49 166.37,238.06 297.26,296.66 50.18,20.78 102.1,37.92 156.03,46.02 116.69,21.8 235.72,7 353.53,9.83 415.78,1.52 831.55,-2.73 1247.44,-2.03 266.95,0.71 533.79,-3.65 800.74,-2.03 216.35,1.63 432.61,-2.83 649.07,-2.02 459.68,0.7 919.35,-3.55 1379.13,-2.03 149.13,-14.4 302.33,-92.26 373.09,-229.54 68.24,-134.94 46.75,-297.87 -12.36,-432.1 -46.64,-108.08 -142.75,-189.38 -253.37,-226.79 23.83,-131.19 31.03,-268.37 -3.95,-398.25 -24.13,-88.71 -74.92,-171.95 -153.1,-222.64 -79.48,-78.16 -175.29,-142.34 -284.89,-168.5 -153.7,-43.59 -318.35,-5.37 -456.12,69.05 -64.58,-146.4 -136.98,-293.92 -249.1,-410.31 -51.3,-55.05 -122.27,-83.74 -189.79,-113.04 -148.73,-57.69 -316.43,-59.21 -468.6,-14.1 -47.35,-152.07 -120.34,-297.46 -221.73,-420.84 -101.28,-122.98 -242.51,-217.27 -401.58,-242.51 -116.28,-36.61 -242.2,-31.13 -358.29,2.83z"/>
  <path class="fil1" d="M2411.03 184.96c116.09,-33.96 242.01,-39.44 358.29,-2.83 159.08,25.24 300.31,119.53 401.58,242.51 101.39,123.39 174.38,268.77 221.73,420.84 152.18,-45.12 319.87,-43.59 468.6,14.1 67.52,29.3 138.49,57.99 189.79,113.04 112.13,116.39 184.52,263.9 249.1,410.31 137.78,-74.42 302.42,-112.64 456.12,-69.05 109.6,26.16 205.41,90.34 284.89,168.5 78.17,50.7 128.97,133.93 153.1,222.64 34.98,129.87 27.78,267.06 3.95,398.25 -182.08,-76.14 -387.8,-58.3 -573.94,-6.39 -39.44,-146.2 -104.53,-290.16 -215.65,-396.22 -114.97,-112.54 -274.65,-172.25 -434.02,-179.04 -107.68,-8.52 -215.25,8.41 -319.77,33.15 -51.7,-127.65 -98.75,-259.14 -176.81,-373.71 -57.18,-84.55 -137.68,-151.97 -228.82,-197.39 -108.09,-53.84 -224.97,-88.1 -342.89,-112.23 -121.36,-24.54 -249.1,-6.69 -360.53,46.13 -168.61,79.08 -298.88,221.32 -395.6,377.55 -71.58,-32.54 -145.08,-62.76 -223.35,-74.42 -208.14,-33.46 -420.95,20.38 -607.29,112.74 -168.91,82.93 -337.82,189.69 -432.91,357.78 -152.49,263.6 -167.39,582.87 -131.5,878.7 -91.85,44.61 -187.97,99.66 -235.72,194.25 -29.3,55.25 -26.76,120.04 -14.5,179.76 -130.89,-58.6 -238.05,-166.17 -297.26,-296.66 -61.84,-141.93 -68.74,-310.23 -3.75,-452.38 73.2,-163.53 215.24,-285.29 368.63,-371.68 -50.7,-210.78 -44.91,-436.45 30.52,-640.65 69.04,-188.58 190.9,-356.26 344.6,-484.93 164.14,-127.64 363.97,-214.52 573.03,-225.68 131.49,-6.29 265.83,13.58 385.86,69.14 136.16,-156.23 302.53,-296.44 504.49,-356.16z"/>
  <path class="fil2" d="M2545.77 917.58c111.42,-52.82 239.17,-70.67 360.53,-46.13 117.91,24.13 234.8,58.39 342.89,112.23 91.14,45.42 171.64,112.84 228.82,197.39 78.06,114.57 125.11,246.06 176.81,373.71 104.53,-24.74 212.09,-41.67 319.77,-33.15 159.38,6.79 319.06,66.5 434.02,179.04 111.12,106.06 176.21,250.02 215.65,396.22 186.14,-51.91 391.86,-69.75 573.94,6.39 110.61,37.41 206.73,118.71 253.37,226.79 59.11,134.24 80.6,297.17 12.36,432.1 -70.77,137.28 -223.96,215.14 -373.09,229.54 -459.78,-1.52 -919.46,2.73 -1379.13,2.03 -216.46,-0.81 -432.72,3.65 -649.07,2.02 -266.95,-1.62 -533.79,2.74 -800.74,2.03 -415.89,-0.7 -831.66,3.55 -1247.44,2.03 -117.81,-2.84 -236.84,11.96 -353.53,-9.83 -53.94,-8.11 -105.85,-25.24 -156.03,-46.02 -12.26,-59.72 -14.8,-124.51 14.5,-179.76 47.75,-94.59 143.87,-149.64 235.72,-194.25 -35.89,-295.84 -20.99,-615.1 131.5,-878.7 95.09,-168.09 264,-274.85 432.91,-357.78 186.34,-92.36 399.14,-146.2 607.29,-112.74 78.27,11.66 151.78,41.88 223.35,74.42 96.72,-156.24 226.99,-298.47 395.6,-377.55z"/>
  <g id="_1531303712656">
   <path class="fil3" d="M1641.32 3350.4c-0.51,-49.89 62.35,-56.58 98.34,-42.99 27.68,7.3 31.03,39.53 30.52,63.57 -1.11,67.01 1.92,134.13 -2.13,201.04 122.57,-97.22 326.15,-50.18 402.09,84.96 49.88,80.81 54.24,186.85 9.12,270.9 -60.01,121.46 -215.14,183 -342.57,137.99 -112.64,-32.45 -193.45,-142.85 -195.98,-259.14 0.3,-152.08 -0.92,-304.26 0.6,-456.33zm237.03 305.88l0 0c-56.97,18.04 -104.32,70.26 -108.17,131.08 -10.24,87.8 70.67,168.61 157.55,164.25 85.16,0.91 162.01,-79.69 151.16,-165.46 -5.79,-94.5 -112.34,-160.6 -200.54,-129.87z"/>
   <path class="fil3" d="M2810.69 3302.64c32.04,-7.9 85.17,-5.78 88.41,37.21 3.55,193.34 -0.41,386.99 1.82,580.43 0.51,39.44 57.19,26.16 68.94,59.31 8.72,33.35 10.55,84.46 -29.2,98.04 -89.31,12.77 -170.53,-70.97 -169.41,-158.67 -0.11,-189.19 -0.41,-378.57 0.1,-567.75 -2.13,-24.13 14.29,-47.24 39.34,-48.57z"/>
   <g>
    <path class="fil3" d="M150.26 3380.81c-3.44,-26.87 13.88,-57.38 42.68,-59.52 31.84,-5.57 80.91,-0.2 85.57,40.05 3.36,170.74 -0.91,341.76 2.03,512.5 7.81,68.23 98.05,101.79 150.46,59.2 26.05,-19.97 39.74,-52.62 36.39,-85.16 -0.1,-159.48 -0.81,-319.06 0.3,-478.54 -1.82,-23.11 15.11,-46.64 39.04,-48.06 27.88,-2.33 63.67,-4.16 83.03,19.97 7.41,15.62 6.49,33.26 7,50.19 -0.51,155.22 -0.2,310.54 -0.3,465.86 -3.35,50.7 43.29,96.62 93.68,94.5 50.19,2.13 96.92,-43.8 93.89,-94.29 0.2,-162.22 -0.51,-324.53 0.3,-486.75 -1.01,-20.48 9.83,-43.18 32.14,-46.13 33.15,-9.43 90.33,-10.74 95.3,34.47 3.65,162.62 0.2,325.45 1.73,488.17 3.14,79.19 -37.01,160.09 -106.46,200.14 -84.55,52.61 -204.49,41.26 -274.14,-31.23 -59.52,56.38 -150.26,80.7 -228.53,52.52 -90.44,-26.46 -155.32,-117.71 -154.1,-211.49 0.1,-158.77 0.1,-317.64 0,-476.41z"/>
    <g>
     <path class="fil3" d="M4082.67 3452.8c6.69,-46.13 66.5,-47.76 101.38,-36.2 40.86,24.03 23.42,77.56 26.67,116.39 48.76,2.22 98.34,-5.07 146.5,4.87 26.05,4.36 32.95,33.86 31.43,56.27 -0.2,24.64 -3.85,60.22 -34.27,64.47 -47.35,8.12 -95.81,2.03 -143.56,3.45 0.51,85.77 -0.71,171.55 0.41,257.32 -1.73,19.56 20.58,32.24 38.12,29.4 35.89,-5.98 24.43,-60.42 60.52,-67.93 33.96,-8.52 88.72,-5.47 95.4,38.22 4.26,92.77 -87.39,168.5 -177.32,157.96 -49.48,-6.09 -97.83,-33.06 -122.58,-77.36 -21.29,-33.15 -25.13,-73.7 -24.13,-112.13 1.42,-144.88 -1.52,-289.96 1.42,-434.74z"/>
     <path class="fil3" d="M1111.07 3579.43c74.52,-56.06 177.02,-75.02 265.63,-43.69 124.61,37.51 211.49,172.15 190.09,301.11 -5.67,23.62 -32.84,29.1 -53.63,30.22 -122.87,2.43 -245.76,-1.82 -368.53,2.13 29.9,49.88 82.93,88.1 143.15,84.96 41.77,5.57 69.55,-47.96 111.22,-32.85 26.06,17.44 56.87,42.88 53.03,77.86 -7.82,30.42 -39.85,45.12 -64.89,59.52 -129.06,63.87 -298.07,-6.39 -357.68,-134.24 -59.21,-115.38 -22.51,-268.16 81.61,-345.01zm33.87 158.46l0 0c94.8,1.12 189.59,-0.1 284.49,0.71 -27.58,-47.15 -74.32,-86.58 -131,-88.82 -63.67,-6.68 -125.31,31.94 -153.5,88.1z"/>
     <path class="fil3" d="M2468.22 3528.63c72.29,-21.89 156.54,-10.64 215.33,38.42 13.49,11.36 29,26.06 27.08,45.53 -3.44,29.5 -27.48,51.3 -51.2,66.1 -32.84,13.69 -59.11,-17.85 -87.39,-28.38 -92.46,-22.92 -193.23,60.82 -183.7,156.83 1.82,103.52 136.87,184.63 222.84,117.1 41.37,-30.51 88.51,16.12 100.07,55.26 1.12,33.45 -30.52,54.03 -56.37,68.42 -83.74,48.97 -192.43,33.66 -270.9,-18.34 -96.72,-61.34 -146.5,-188.68 -115.48,-299.09 22.1,-97.43 103.41,-177.43 199.73,-201.86z"/>
     <path class="fil3" d="M3209.54 3529.74c125.51,-34.67 271.6,32.04 324.84,151.78 43.8,88.41 33.76,198.82 -23.63,278.71 -76.75,114.87 -242.81,152.99 -363.97,88.41 -111.62,-55.76 -177.52,-192.33 -143.87,-313.78 23.12,-100.17 105.95,-183.11 206.63,-205.11zm9.02 130.68l0 0c-58.7,22.51 -99.86,84.56 -95.2,147.72 2.44,77.76 74.11,144.88 151.78,143.47 86.88,4.25 167.49,-76.85 157.35,-164.34 -6.19,-99.56 -123.59,-167.09 -213.93,-126.84z"/>
     <path class="fil3" d="M3668.92 3562.09c59.61,-51.7 143.66,-33.25 215.74,-36.8 33.66,1.22 79.68,-8.62 98.85,27.78 8.82,33.56 10.96,85.58 -29.4,98.75 -63.67,8.22 -128.46,-1.72 -192.23,4.77 -36.3,8.52 -30.51,77.56 9.64,74.11 54.54,0.2 114.05,-5.68 161.81,26.56 87.79,55.87 96.51,193.95 25.65,266.74 -35.99,34.68 -87.09,49.17 -136.26,46.64 -53.13,-1.92 -106.65,3.14 -159.48,-2.84 -24.33,-0.91 -41.97,-22.71 -40.45,-46.34 -1.52,-28.48 -0.31,-72.99 36.6,-77.25 63.67,-8.71 128.65,1.73 192.53,-4.86 5.98,-2.64 17.94,-8.01 24.02,-10.65 -0.1,-16.63 0,-33.25 0.31,-49.78 -10.45,-6.38 -18.16,-20.58 -32.04,-18.66 -51.51,-0.6 -106.36,4.98 -153.1,-21.39 -99.35,-51.1 -109.79,-209.46 -22.2,-276.78z"/>
     <path class="fil3" d="M4555.52 3575.87c73.7,-53.22 173.26,-70.66 259.75,-40.34 122.67,36.19 208.04,166.17 192.53,293.1 -1.33,23.63 -24.84,40.26 -47.45,38.53 -125.41,1.82 -250.83,-0.92 -376.15,1.22 27.89,50.89 81.93,87.39 141.13,85.87 35.99,3.76 60.33,-28.08 92.87,-36.39 30.42,0.91 51.51,28.59 67.42,51.5 21.6,40.76 -22.4,69.96 -53.12,86.28 -138.9,73.81 -326.77,-12.06 -375.13,-158.67 -43.09,-113.04 -1.01,-251.74 98.14,-321.09zm27.38 162.33l0 0c94.99,0.2 189.99,0.3 284.99,0 -28.49,-51.1 -81.62,-91.05 -142.14,-88.82 -60.53,-1.92 -114.97,36.8 -142.85,88.82z"/>
     <path class="fil3" d="M5305.97 3526.6c24.03,-4.25 51.51,-12.17 74.21,1.42 29.09,21.89 26.26,65.39 14.91,96.11 -9.03,24.94 -39.54,22.81 -60.63,28.18 -68.84,10.24 -127.95,73.71 -127.44,144.37 -0.81,74.22 0.81,148.64 -0.3,222.85 1.82,69.85 -130.48,71.17 -128.76,0.3 -1.21,-67.83 0.3,-135.55 -0.6,-203.37 -1.41,-71.18 20.89,-144.18 68.34,-198.01 40.85,-47.86 98.74,-79.69 160.29,-91.86z"/>
    </g>
   </g>
  </g>
  <path class="fil3" d="M5589.02 3263.19c19.46,0 38.44,5 57,15.01 18.51,9.96 32.99,24.28 43.32,42.84 10.33,18.62 15.52,38.02 15.52,58.16 0,19.97 -5.08,39.22 -15.31,57.63 -10.18,18.46 -24.44,32.77 -42.85,42.95 -18.4,10.23 -37.65,15.31 -57.68,15.31 -20.09,0 -39.33,-5.08 -57.74,-15.31 -18.41,-10.18 -32.72,-24.49 -42.95,-42.95 -10.23,-18.41 -15.37,-37.66 -15.37,-57.63 0,-20.14 5.19,-39.54 15.58,-58.16 10.43,-18.56 24.91,-32.88 43.42,-42.84 18.57,-10.01 37.54,-15.01 57.06,-15.01zm0 19.2c-16.3,0 -32.2,4.2 -47.62,12.54 -15.42,8.33 -27.48,20.29 -36.19,35.81 -8.69,15.53 -13.05,31.68 -13.05,48.46 0,16.73 4.3,32.72 12.85,48.03 8.56,15.32 20.51,27.27 35.88,35.82 15.36,8.56 31.41,12.86 48.14,12.86 16.67,0 32.72,-4.3 48.09,-12.86 15.37,-8.55 27.32,-20.5 35.82,-35.82 8.5,-15.31 12.74,-31.3 12.74,-48.03 0,-16.78 -4.35,-32.93 -13.01,-48.46 -8.65,-15.51 -20.71,-27.48 -36.19,-35.81 -15.46,-8.34 -31.31,-12.54 -47.46,-12.54zm-50.92 160.79l0 -124.61 42.9 0c14.67,0 25.27,1.14 31.83,3.45 6.62,2.3 11.8,6.29 15.74,12.06 3.87,5.72 5.82,11.81 5.82,18.26 0,9.07 -3.25,17.04 -9.81,23.76 -6.5,6.76 -15.15,10.54 -25.95,11.38 4.4,1.83 7.97,4.04 10.6,6.61 5.02,4.88 11.16,13.11 18.45,24.7l15.21 24.39 -24.44 0 -11.11 -19.62c-8.7,-15.47 -15.79,-25.17 -21.13,-29.06 -3.68,-2.83 -9.03,-4.24 -16.1,-4.2l-11.85 0 0 52.87 -20.14 0zm20.14 -70.17l24.44 0c11.69,0 19.66,-1.74 23.91,-5.2 4.24,-3.45 6.4,-8.07 6.4,-13.74 0,-3.67 -1.05,-6.97 -3.1,-9.85 -2.04,-2.94 -4.88,-5.08 -8.5,-6.51 -3.66,-1.41 -10.38,-2.15 -20.24,-2.15l-22.92 0 0 37.45z"/>
  <path class="fil3" d="M4702.37 4196.81l0 39.78 -105.33 0c-7.24,0 -14.1,1.36 -20.58,4.08 -6.48,2.7 -12.13,6.48 -16.96,11.3 -4.81,4.82 -8.59,10.47 -11.29,16.95 -2.71,6.48 -4.07,13.34 -4.07,20.58 0,7.23 1.36,14.01 4.07,20.33 2.7,6.33 6.48,11.91 11.29,16.73 4.83,4.82 10.48,8.59 16.96,11.3 6.48,2.71 13.34,4.07 20.58,4.07l28.02 0c12.65,0 24.64,2.41 35.93,7.23 11.31,4.82 21.09,11.45 29.39,19.89 8.28,8.44 14.85,18.3 19.67,29.61 4.82,11.3 7.23,23.28 7.23,35.93 0,12.66 -2.41,24.64 -7.23,35.94 -4.82,11.3 -11.39,21.09 -19.67,29.39 -8.29,8.28 -18.08,14.84 -29.39,19.66 -11.3,4.82 -23.28,7.23 -35.93,7.23l-105.78 0 0 -39.33 105.78 0c7.23,0 14.09,-1.36 20.58,-4.07 6.48,-2.71 12.04,-6.48 16.71,-11.3 4.67,-4.82 8.44,-10.47 11.31,-16.96 2.87,-6.48 4.29,-13.33 4.29,-20.57 0,-7.23 -1.42,-14.09 -4.29,-20.56 -2.87,-6.49 -6.63,-12.14 -11.31,-16.96 -4.67,-4.83 -10.23,-8.6 -16.71,-11.31 -6.49,-2.71 -13.35,-4.07 -20.58,-4.07l-28.02 0c-12.66,0 -24.65,-2.41 -35.94,-7.23 -11.3,-4.83 -21.17,-11.38 -29.61,-19.67 -8.44,-8.28 -15.06,-18.08 -19.89,-29.38 -4.82,-11.3 -7.23,-23.28 -7.23,-35.93 0,-12.97 2.41,-25.02 7.23,-36.18 4.83,-11.15 11.45,-20.94 19.89,-29.38 8.44,-8.44 18.31,-15.06 29.61,-19.89 11.3,-4.82 23.28,-7.23 35.94,-7.23l105.33 0zm55.16 276.22l39.33 0 0 52.43 -39.33 0 0 -52.43zm273.95 -159.58c0,-11.15 -2.11,-21.62 -6.33,-31.42 -4.21,-9.8 -10.02,-18.39 -17.41,-25.77 -7.38,-7.39 -15.97,-13.19 -25.77,-17.41 -9.8,-4.21 -20.27,-6.33 -31.42,-6.33 -11.15,0 -21.62,2.12 -31.42,6.33 -9.8,4.21 -18.38,10.02 -25.77,17.41 -7.38,7.38 -13.18,15.97 -17.41,25.77 -4.21,9.8 -6.32,20.27 -6.32,31.42l0 54.71 161.84 0 0 -54.71zm-161.84 94.03l0 119.35 -39.79 0 0 -213.37c0,-16.58 3.16,-32.17 9.49,-46.78 6.33,-14.63 14.92,-27.35 25.77,-38.21 10.85,-10.85 23.59,-19.44 38.2,-25.77 14.62,-6.32 30.36,-9.49 47.24,-9.49 16.58,0 32.17,3.17 46.79,9.49 14.62,6.33 27.35,14.92 38.2,25.77 10.85,10.86 19.44,23.58 25.77,38.21 6.32,14.62 9.49,30.21 9.49,46.78l0 213.37 -39.33 0 0 -119.35 -161.84 0zm248.18 65.56l39.34 0 0 52.43 -39.34 0 0 -52.43zm270.34 -276.22l0 39.78 -105.34 0c-7.24,0 -14.09,1.36 -20.57,4.08 -6.48,2.7 -12.13,6.48 -16.96,11.3 -4.82,4.82 -8.59,10.47 -11.3,16.95 -2.71,6.48 -4.07,13.34 -4.07,20.58 0,7.23 1.36,14.01 4.07,20.33 2.71,6.33 6.48,11.91 11.3,16.73 4.83,4.82 10.48,8.59 16.96,11.3 6.48,2.71 13.33,4.07 20.57,4.07l28.03 0c12.65,0 24.64,2.41 35.93,7.23 11.31,4.82 21.09,11.45 29.39,19.89 8.28,8.44 14.85,18.3 19.66,29.61 4.83,11.3 7.23,23.28 7.23,35.93 0,12.66 -2.4,24.64 -7.23,35.94 -4.81,11.3 -11.38,21.09 -19.66,29.39 -8.29,8.28 -18.08,14.84 -29.39,19.66 -11.3,4.82 -23.28,7.23 -35.93,7.23l-105.78 0 0 -39.33 105.78 0c7.23,0 14.09,-1.36 20.57,-4.07 6.48,-2.71 12.05,-6.48 16.72,-11.3 4.67,-4.82 8.44,-10.47 11.31,-16.96 2.87,-6.48 4.29,-13.33 4.29,-20.57 0,-7.23 -1.42,-14.09 -4.29,-20.56 -2.87,-6.49 -6.63,-12.14 -11.31,-16.96 -4.67,-4.83 -10.24,-8.6 -16.72,-11.31 -6.48,-2.71 -13.34,-4.07 -20.57,-4.07l-28.03 0c-12.65,0 -24.64,-2.41 -35.94,-7.23 -11.3,-4.83 -21.16,-11.38 -29.6,-19.67 -8.44,-8.28 -15.07,-18.08 -19.89,-29.38 -4.82,-11.3 -7.23,-23.28 -7.23,-35.93 0,-12.97 2.41,-25.02 7.23,-36.18 4.82,-11.15 11.45,-20.94 19.89,-29.38 8.44,-8.44 18.3,-15.06 29.6,-19.89 11.31,-4.82 23.29,-7.23 35.94,-7.23l105.34 0z"/>
 </g>
</svg>
